<svg id="13daf43a-bad9-424e-836a-167cc82b8c6b" data-name="Capa 1" xmlns="http://www.w3.org/2000/svg" width="54.59mm" height="66.93mm" viewBox="0 0 154.73 189.73">
  <title>Mesa de trabajo 2</title>
  <polygon points="61.78 34.24 67.26 65.82 97.57 31.42 61.78 34.24" fill="#a4ba72"/>
  <polygon points="97.57 31.42 67.26 65.82 97.58 68.52 97.57 31.42" fill="#72ad7c"/>
  <polygon points="76.9 96.43 67.26 65.82 97.58 68.52 76.9 96.43" fill="#59855b"/>
  <polygon points="36.24 97.93 67.26 65.82 76.9 96.43 36.24 97.93" fill="#6d8a60"/>
  <polygon points="10.51 72.71 36.24 97.93 67.26 65.82 33.44 54.55 10.51 72.71" fill="#81708d"/>
  <polygon points="61.78 34.24 67.26 65.82 33.44 54.55 61.78 34.24" fill="#3c8992"/>
  <polygon points="10.51 72.71 33.44 54.55 10.71 34.24 10.51 72.71" fill="#908cb2"/>
  <polygon points="10.71 34.24 33.43 54.54 61.78 34.24 10.71 34.24" fill="#346a86"/>
  <polygon points="69.17 12.78 41.12 18.26 10.71 34.24 61.78 34.24 69.17 12.78" fill="#206070"/>
  <polygon points="69.17 12.78 61.78 34.24 97.58 31.42 69.17 12.78" fill="#81708d"/>
  <g>
    <path d="M10.51,162.76H20c6.75,0,10-4.76,10-11.16,0-7.34-4.3-10.93-10-10.93H10.51Zm4.86-18h3.47c4.82,0,6.37,2.84,6.37,7.3,0,4.89-2.69,6.62-5.51,6.62H15.37Z" fill="#1b1b1b"/>
    <path d="M33.1,162.76h4.39v-16H33.1Zm0-18.47h4.39v-3.62H33.1Z" fill="#1b1b1b"/>
    <g>
      <path d="M41,162.76h4.39v-8.38c0-3.25,1-4.58,3.4-4.58,2,0,2.82,1.3,2.82,3.93v9H56v-9.84c0-3.95-1.17-6.59-5.85-6.59A5.69,5.69,0,0,0,45.23,149h-.1v-2.23H41Z" fill="#1b1b1b"/>
      <path d="M69.27,156.58c0,1-.13,3.68-3.56,3.68-1.42,0-2.69-.4-2.69-2s1.23-2.08,2.59-2.36,2.91-.27,3.66-.92Zm-5.76-4.89c.16-1.73,1.24-2.42,2.91-2.42s2.85.28,2.85,2.17-2.51,1.7-5.2,2.1-5.45,1.24-5.45,4.86c0,3.28,2.42,4.8,5.45,4.8a7.34,7.34,0,0,0,5.38-2,6.68,6.68,0,0,0,.31,1.54h4.46a8,8,0,0,1-.56-3.55v-8.33c0-3.83-3.84-4.55-7-4.55-3.59,0-7.27,1.24-7.52,5.36Zm2.29-6.9h3.06l-3-4.4H61Z" fill="#1b1b1b"/>
      <path d="M77.19,162.76h4.39v-9.28c0-3.12,2.1-3.68,3-3.68,2.78,0,2.66,2.14,2.66,4v9H91.6v-8.91c0-2,.47-4,2.94-4s2.69,1.76,2.69,3.9v9.06h4.4v-10.7c0-4.15-2.45-5.73-5.85-5.73A5.8,5.8,0,0,0,91,149a4.73,4.73,0,0,0-4.67-2.67,5.79,5.79,0,0,0-4.89,2.6h-.06v-2.16H77.19Z" fill="#1b1b1b"/>
    </g>
    <path d="M105.22,162.76h4.39v-16h-4.39Zm0-18.47h4.39v-3.62h-4.39Z" fill="#1b1b1b"/>
    <g>
      <path d="M128.27,152.4c-.28-4.08-3.75-6.07-7.52-6.07-5.2,0-8.17,3.69-8.17,8.67,0,4.79,3.25,8.2,8.08,8.2,4.2,0,7.14-2.32,7.7-6.56h-4.24a3.38,3.38,0,0,1-3.49,3.25c-2.76,0-3.66-2.76-3.66-5s.93-5.19,3.75-5.19A3,3,0,0,1,124,152.4Z" fill="#1b1b1b"/>
      <path d="M130.06,157.57c.19,4.23,3.81,5.63,7.52,5.63s7.3-1.36,7.3-5.57c0-3-2.51-3.9-5.07-4.49s-5-.8-5-2.38c0-1.3,1.45-1.49,2.44-1.49,1.58,0,2.88.47,3,2.17h4.18c-.34-3.93-3.56-5.11-7.06-5.11s-7,1.06-7,5.14c0,2.82,2.54,3.71,5.08,4.27,3.15.68,5,1.15,5,2.48,0,1.54-1.61,2-2.88,2-1.73,0-3.34-.78-3.37-2.69Z" fill="#1b1b1b"/>
    </g>
  </g>
  <g>
    <polygon points="10.51 110.67 10.51 132.76 27.28 132.76 27.28 128.68 15.37 128.68 15.37 123.26 26.08 123.26 26.08 119.49 15.37 119.49 15.37 114.75 27.03 114.75 27.03 110.67 10.51 110.67" fill="#1b1b1b"/>
    <g>
      <path d="M29.32,127.56c.19,4.24,3.81,5.63,7.52,5.63s7.3-1.36,7.3-5.57c0-3-2.5-3.89-5.07-4.48s-5-.8-5-2.38c0-1.3,1.45-1.49,2.44-1.49,1.58,0,2.88.47,3,2.17h4.18c-.34-3.93-3.56-5.11-7.05-5.11s-7,1-7,5.14c0,2.81,2.53,3.71,5.07,4.27,3.15.68,5,1.14,5,2.47,0,1.55-1.61,2-2.88,2-1.73,0-3.34-.77-3.37-2.69Z" fill="#1b1b1b"/>
      <path d="M46.71,138.39H51.1v-7.61h.07A5.65,5.65,0,0,0,56,133.19c4.67,0,7-4,7-8.26,0-4.54-2.26-8.6-7.28-8.6A5.32,5.32,0,0,0,51,118.81h-.06v-2H46.71Zm8.08-8.51c-2.85,0-3.84-2.47-3.84-5.07s.93-5.17,3.81-5.17,3.83,2.63,3.83,5.17-.93,5.07-3.8,5.07" fill="#1b1b1b"/>
      <path d="M75.58,126.57c0,1-.13,3.68-3.56,3.68-1.42,0-2.69-.4-2.69-2s1.23-2.07,2.6-2.35,2.9-.28,3.65-.93Zm-5.76-4.88c.16-1.74,1.24-2.42,2.91-2.42s2.85.28,2.85,2.17-2.51,1.7-5.2,2.1-5.45,1.24-5.45,4.86c0,3.28,2.42,4.79,5.45,4.79a7.3,7.3,0,0,0,5.38-2,6.66,6.66,0,0,0,.31,1.55h4.46A8.22,8.22,0,0,1,80,129.2v-8.32c0-3.84-3.84-4.55-7-4.55-3.59,0-7.27,1.24-7.52,5.36Z" fill="#1b1b1b"/>
    </g>
    <path d="M83.5,132.76h4.39v-16H83.5Zm0-18.47h4.39v-3.62H83.5Z" fill="#1b1b1b"/>
    <path d="M90.58,127.56c.19,4.24,3.81,5.63,7.52,5.63s7.3-1.36,7.3-5.57c0-3-2.5-3.89-5.07-4.48s-5-.8-5-2.38c0-1.3,1.45-1.49,2.44-1.49,1.58,0,2.88.47,3,2.17H105c-.34-3.93-3.56-5.11-7-5.11s-7,1-7,5.14c0,2.81,2.54,3.71,5.08,4.27,3.15.68,5,1.14,5,2.47,0,1.55-1.61,2-2.88,2-1.73,0-3.34-.77-3.37-2.69Z" fill="#1b1b1b"/>
  </g>
  <g>
    <polygon points="10.08 170.5 10.08 176.96 13.36 176.96 13.36 176.47 10.66 176.47 10.66 173.82 13.11 173.82 13.11 173.34 10.66 173.34 10.66 170.99 13.28 170.99 13.28 170.5 10.08 170.5" fill="#346a86"/>
    <path d="M17.51,172.15a1.55,1.55,0,0,0-1.76-1.76A1.63,1.63,0,0,0,14,172.1c0,2.34,3.13,1.25,3.13,3.16a1.23,1.23,0,0,1-1.39,1.31,1.22,1.22,0,0,1-1.29-1.37V175h-.58v.19a1.7,1.7,0,0,0,1.88,1.91,1.76,1.76,0,0,0,2-1.89c0-2.27-3.13-1.21-3.13-3.13a1.12,1.12,0,0,1,1.22-1.16c.79,0,1.16.48,1.16,1.27Z" fill="#346a86"/>
    <polygon points="17.98 170.5 17.98 170.99 19.65 170.99 19.65 176.96 20.23 176.96 20.23 170.99 21.89 170.99 21.89 170.5 17.98 170.5" fill="#346a86"/>
    <g>
      <path d="M22.36,175.15c0,1.35.66,1.91,1.85,1.91s1.84-.56,1.84-1.91V170.5h-.58v4.64c0,1-.41,1.43-1.26,1.43s-1.27-.47-1.27-1.43V170.5h-.58Z" fill="#346a86"/>
      <path d="M27,177h1.56c1.88,0,2.34-1.12,2.34-3.22s-.46-3.23-2.34-3.23H27Zm.58-6h.94c1.27,0,1.8.63,1.8,2.74s-.53,2.74-1.8,2.74h-.94Z" fill="#346a86"/>
    </g>
    <rect x="31.87" y="170.5" width="0.58" height="6.46" fill="#346a86"/>
    <path d="M35.66,177h1.56c1.88,0,2.34-1.12,2.34-3.22s-.46-3.23-2.34-3.23H35.66Zm.58-6h.94c1.27,0,1.8.63,1.8,2.74s-.53,2.74-1.8,2.74h-.94Z" fill="#346a86"/>
    <rect x="40.83" y="170.5" width="0.54" height="2.17" fill="#346a86"/>
    <rect x="42.73" y="170.5" width="0.58" height="6.46" fill="#346a86"/>
    <polygon points="47.62 170.5 47.62 176.12 47.6 176.12 45.13 170.5 44.35 170.5 44.35 176.96 44.93 176.96 44.93 171.33 44.95 171.33 47.42 176.96 48.2 176.96 48.2 170.5 47.62 170.5" fill="#346a86"/>
    <polygon points="48.76 170.5 48.76 170.99 50.42 170.99 50.42 176.96 51 176.96 51 170.99 52.66 170.99 52.66 170.5 48.76 170.5" fill="#346a86"/>
    <polygon points="53.22 170.5 53.22 176.96 56.51 176.96 56.51 176.47 53.8 176.47 53.8 173.82 56.25 173.82 56.25 173.34 53.8 173.34 53.8 170.99 56.42 170.99 56.42 170.5 53.22 170.5" fill="#346a86"/>
    <path d="M57.24,177h.58V174h1.09c1,0,1.25.36,1.29,1.5v.54a1.88,1.88,0,0,0,.18.9h.67a1.43,1.43,0,0,1-.27-.94l0-.71c0-1-.29-1.46-1.1-1.53v0a1.47,1.47,0,0,0,1.17-1.63,1.51,1.51,0,0,0-1.68-1.62H57.24Zm.58-6h1.06c1,0,1.38.47,1.38,1.26s-.53,1.27-1.45,1.27h-1Z" fill="#346a86"/>
    <rect x="61.8" y="170.5" width="0.58" height="6.46" fill="#346a86"/>
    <g>
      <path d="M63.37,173.73c0,2.31.74,3.33,2.06,3.33s2.06-1,2.06-3.33-.74-3.34-2.06-3.34-2.06,1-2.06,3.34m.58,0c0-2.09.56-2.85,1.48-2.85s1.48.76,1.48,2.85-.56,2.84-1.48,2.84S64,175.82,64,173.73" fill="#346a86"/>
      <path d="M68.45,177H69V174h1.09c1,0,1.25.36,1.29,1.5l0,.54a1.88,1.88,0,0,0,.17.9h.68A1.38,1.38,0,0,1,72,176v-.71c0-1-.3-1.46-1.11-1.53v0a1.47,1.47,0,0,0,1.17-1.63,1.5,1.5,0,0,0-1.67-1.62H68.45Zm.58-6h1.06c1,0,1.38.47,1.38,1.26s-.53,1.27-1.44,1.27H69Z" fill="#346a86"/>
    </g>
    <rect x="73.01" y="170.5" width="0.58" height="6.46" fill="#346a86"/>
    <path d="M78.05,172.15a1.55,1.55,0,0,0-1.76-1.76,1.63,1.63,0,0,0-1.78,1.71c0,2.34,3.13,1.25,3.13,3.16A1.34,1.34,0,1,1,75,175.2V175h-.58v.19a1.7,1.7,0,0,0,1.88,1.91,1.76,1.76,0,0,0,2-1.89c0-2.27-3.13-1.21-3.13-3.13a1.12,1.12,0,0,1,1.22-1.16c.79,0,1.16.48,1.16,1.27Z" fill="#346a86"/>
    <polygon points="83.16 170.5 81.61 176.23 81.59 176.23 80.04 170.5 79.03 170.5 79.03 176.96 79.61 176.96 79.61 171.04 79.63 171.04 81.3 176.96 81.84 176.96 83.52 171.04 83.53 171.04 83.53 176.96 84.11 176.96 84.11 170.5 83.16 170.5" fill="#346a86"/>
    <polygon points="85.18 170.5 85.18 176.96 88.46 176.96 88.46 176.47 85.76 176.47 85.76 173.82 88.21 173.82 88.21 173.34 85.76 173.34 85.76 170.99 88.38 170.99 88.38 170.5 85.18 170.5" fill="#346a86"/>
    <rect x="91.4" y="170.5" width="0.58" height="6.46" fill="#346a86"/>
    <path d="M96.61,171h0l1,3.63h-2Zm-.35-.45L94.35,177H95l.53-1.89h2.26l.52,1.89h.62L97,170.5Z" fill="#346a86"/>
    <g>
      <path d="M99.39,177H100V174h1.1c1,0,1.25.36,1.28,1.5l0,.54a2,2,0,0,0,.17.9h.68a1.38,1.38,0,0,1-.27-.94l0-.71c0-1-.3-1.46-1.1-1.53v0a1.46,1.46,0,0,0,1.16-1.63,1.5,1.5,0,0,0-1.67-1.62H99.39Zm.57-6H101c1,0,1.39.47,1.39,1.26s-.54,1.27-1.45,1.27h-1Z" fill="#346a86"/>
      <path d="M107.73,177.3l.32-.35-.66-.63a4.47,4.47,0,0,0,.59-2.59c0-2.32-.75-3.34-2.07-3.34s-2.06,1-2.06,3.34.74,3.33,2.06,3.33a1.68,1.68,0,0,0,1.17-.4Zm-1-1a1.16,1.16,0,0,1-.82.29c-.92,0-1.48-.75-1.48-2.84s.56-2.85,1.48-2.85,1.49.76,1.49,2.85a4.7,4.7,0,0,1-.39,2.18l-.7-.67-.31.34Z" fill="#346a86"/>
      <path d="M108.84,175.15c0,1.35.66,1.91,1.85,1.91s1.84-.56,1.84-1.91V170.5H112v4.64c0,1-.41,1.43-1.26,1.43s-1.27-.47-1.27-1.43V170.5h-.58Z" fill="#346a86"/>
    </g>
    <rect x="113.49" y="170.5" width="0.58" height="6.46" fill="#346a86"/>
    <polygon points="114.67 170.5 114.67 170.99 116.33 170.99 116.33 176.96 116.91 176.96 116.91 170.99 118.58 170.99 118.58 170.5 114.67 170.5" fill="#346a86"/>
    <polygon points="119.14 170.5 119.14 176.96 122.42 176.96 122.42 176.47 119.71 176.47 119.71 173.82 122.17 173.82 122.17 173.34 119.71 173.34 119.71 170.99 122.34 170.99 122.34 170.5 119.14 170.5" fill="#346a86"/>
    <path d="M126.5,174.77c-.07,1.11-.53,1.8-1.34,1.8s-1.49-.75-1.49-2.84.56-2.85,1.49-2.85,1.27.62,1.27,1.5H127a1.78,1.78,0,0,0-1.85-2c-1.32,0-2.06,1-2.06,3.34s.74,3.33,2.06,3.33c1.16,0,1.83-.82,1.91-2.29Z" fill="#346a86"/>
    <polygon points="127.39 170.5 127.39 170.99 129.06 170.99 129.06 176.96 129.63 176.96 129.63 170.99 131.3 170.99 131.3 170.5 127.39 170.5" fill="#346a86"/>
    <g>
      <path d="M131.77,175.15c0,1.35.66,1.91,1.84,1.91s1.85-.56,1.85-1.91V170.5h-.58v4.64c0,1-.42,1.43-1.27,1.43s-1.26-.47-1.26-1.43V170.5h-.58Z" fill="#346a86"/>
      <path d="M136.38,177H137V174h1.09c1,0,1.25.36,1.29,1.5v.54a1.88,1.88,0,0,0,.18.9h.68a1.38,1.38,0,0,1-.28-.94l0-.71c0-1-.29-1.46-1.1-1.53v0a1.47,1.47,0,0,0,1.17-1.63,1.5,1.5,0,0,0-1.67-1.62h-1.93Zm.58-6H138c1,0,1.38.47,1.38,1.26s-.53,1.27-1.45,1.27h-1Z" fill="#346a86"/>
    </g>
    <path d="M142.65,171h0l1,3.63h-2Zm-.36-.45L140.38,177H141l.52-1.89h2.27l.52,1.89h.61L143,170.5Z" fill="#346a86"/>
  </g>
</svg>
